<mxfile host="app.diagrams.net" modified="2023-10-28T00:26:29.584Z" agent="Mozilla/5.0 (Macintosh; Intel Mac OS X 10_15_7) AppleWebKit/537.36 (KHTML, like Gecko) Chrome/118.0.0.0 Safari/537.36" etag="OPBD3rmExsakbBpTVFyV" version="22.0.8" type="device">
  <diagram name="Page-1" id="3SytWvoLkZ7nyltdvRyj">
    <mxGraphModel dx="1094" dy="994" grid="1" gridSize="10" guides="1" tooltips="1" connect="1" arrows="1" fold="1" page="1" pageScale="1" pageWidth="850" pageHeight="1100" math="0" shadow="0">
      <root>
        <mxCell id="0" />
        <mxCell id="1" parent="0" />
        <mxCell id="iqH2d1IaWqVk7HUMH50_-3" value="" style="edgeStyle=orthogonalEdgeStyle;rounded=0;orthogonalLoop=1;jettySize=auto;html=1;" edge="1" parent="1" source="iqH2d1IaWqVk7HUMH50_-1" target="iqH2d1IaWqVk7HUMH50_-2">
          <mxGeometry relative="1" as="geometry" />
        </mxCell>
        <mxCell id="iqH2d1IaWqVk7HUMH50_-5" value="" style="edgeStyle=orthogonalEdgeStyle;rounded=0;orthogonalLoop=1;jettySize=auto;html=1;" edge="1" parent="1" source="iqH2d1IaWqVk7HUMH50_-1" target="iqH2d1IaWqVk7HUMH50_-4">
          <mxGeometry relative="1" as="geometry" />
        </mxCell>
        <mxCell id="iqH2d1IaWqVk7HUMH50_-7" value="" style="edgeStyle=orthogonalEdgeStyle;rounded=0;orthogonalLoop=1;jettySize=auto;html=1;" edge="1" parent="1" source="iqH2d1IaWqVk7HUMH50_-1" target="iqH2d1IaWqVk7HUMH50_-6">
          <mxGeometry relative="1" as="geometry" />
        </mxCell>
        <mxCell id="iqH2d1IaWqVk7HUMH50_-1" value="Home" style="rounded=0;whiteSpace=wrap;html=1;" vertex="1" parent="1">
          <mxGeometry x="255" y="60" width="120" height="60" as="geometry" />
        </mxCell>
        <mxCell id="iqH2d1IaWqVk7HUMH50_-2" value="About" style="rounded=0;whiteSpace=wrap;html=1;" vertex="1" parent="1">
          <mxGeometry x="40" y="200" width="120" height="60" as="geometry" />
        </mxCell>
        <mxCell id="iqH2d1IaWqVk7HUMH50_-4" value="Contact" style="rounded=0;whiteSpace=wrap;html=1;" vertex="1" parent="1">
          <mxGeometry x="255" y="200" width="120" height="60" as="geometry" />
        </mxCell>
        <mxCell id="iqH2d1IaWqVk7HUMH50_-9" value="" style="edgeStyle=orthogonalEdgeStyle;rounded=0;orthogonalLoop=1;jettySize=auto;html=1;" edge="1" parent="1" source="iqH2d1IaWqVk7HUMH50_-6" target="iqH2d1IaWqVk7HUMH50_-8">
          <mxGeometry relative="1" as="geometry" />
        </mxCell>
        <mxCell id="iqH2d1IaWqVk7HUMH50_-11" value="" style="edgeStyle=orthogonalEdgeStyle;rounded=0;orthogonalLoop=1;jettySize=auto;html=1;" edge="1" parent="1" source="iqH2d1IaWqVk7HUMH50_-6" target="iqH2d1IaWqVk7HUMH50_-10">
          <mxGeometry relative="1" as="geometry" />
        </mxCell>
        <mxCell id="iqH2d1IaWqVk7HUMH50_-13" value="" style="edgeStyle=orthogonalEdgeStyle;rounded=0;orthogonalLoop=1;jettySize=auto;html=1;" edge="1" parent="1" source="iqH2d1IaWqVk7HUMH50_-6" target="iqH2d1IaWqVk7HUMH50_-12">
          <mxGeometry relative="1" as="geometry" />
        </mxCell>
        <mxCell id="iqH2d1IaWqVk7HUMH50_-6" value="Services" style="rounded=0;whiteSpace=wrap;html=1;" vertex="1" parent="1">
          <mxGeometry x="480" y="200" width="120" height="60" as="geometry" />
        </mxCell>
        <mxCell id="iqH2d1IaWqVk7HUMH50_-8" value="Web Development" style="rounded=0;whiteSpace=wrap;html=1;" vertex="1" parent="1">
          <mxGeometry x="345" y="320" width="120" height="60" as="geometry" />
        </mxCell>
        <mxCell id="iqH2d1IaWqVk7HUMH50_-10" value="Web Design" style="rounded=0;whiteSpace=wrap;html=1;" vertex="1" parent="1">
          <mxGeometry x="480" y="320" width="120" height="60" as="geometry" />
        </mxCell>
        <mxCell id="iqH2d1IaWqVk7HUMH50_-12" value="Cyber&lt;br&gt;Security" style="rounded=0;whiteSpace=wrap;html=1;" vertex="1" parent="1">
          <mxGeometry x="615" y="320" width="120" height="60" as="geometry" />
        </mxCell>
      </root>
    </mxGraphModel>
  </diagram>
</mxfile>
